<svg width="22" height="16" viewBox="0 0 22 16" fill="none" xmlns="http://www.w3.org/2000/svg">
<g clip-path="url(#clip0_112_14)">
<rect width="21.8353" height="16" transform="translate(0.0823669)" fill="white"/>
<path d="M20.0353 16H1.96472C0.92679 16 0.0823669 15.1556 0.0823669 14.1176V1.88235C0.0823669 0.844424 0.92679 0 1.96472 0H20.0353C21.0732 0 21.9177 0.844424 21.9177 1.88235V14.1176C21.9177 15.1556 21.0732 16 20.0353 16ZM1.96472 0.752941C1.34185 0.752941 0.835308 1.25948 0.835308 1.88235V14.1176C0.835308 14.7405 1.34185 15.2471 1.96472 15.2471H20.0353C20.6582 15.2471 21.1647 14.7405 21.1647 14.1176V1.88235C21.1647 1.25948 20.6582 0.752941 20.0353 0.752941H1.96472Z" fill="#28230E"/>
<path d="M11 8.47811C10.767 8.47793 10.5397 8.40553 10.3495 8.27086L0.459411 2.58522C0.372875 2.53541 0.309653 2.45329 0.28364 2.35689C0.257626 2.2605 0.27095 2.15772 0.320682 2.07114C0.37059 1.98472 0.452711 1.9216 0.549062 1.8956C0.645413 1.8696 0.748142 1.88283 0.834752 1.93241L10.7766 7.65082C10.8413 7.69858 10.9195 7.72436 10.9999 7.72436C11.0803 7.72436 11.1586 7.69858 11.2233 7.65082L11.2587 7.62766L21.1653 1.93241C21.2516 1.88598 21.3527 1.87505 21.447 1.90193C21.5413 1.92882 21.6213 1.99141 21.6702 2.07641C21.7191 2.1614 21.7329 2.2621 21.7087 2.35711C21.6845 2.45212 21.6242 2.53395 21.5406 2.58522L11.6506 8.27086C11.4604 8.40553 11.2331 8.47793 11 8.47811Z" fill="#28230E"/>
</g>
<defs>
<clipPath id="clip0_112_14">
<rect width="21.8353" height="16" fill="white" transform="translate(0.0823669)"/>
</clipPath>
</defs>
</svg>
