<svg width="40" height="40" viewBox="0 0 40 40" fill="none" xmlns="http://www.w3.org/2000/svg">
<path d="M20 0C16.0444 0 12.1776 1.17298 8.8886 3.37061C5.59962 5.56823 3.03617 8.69181 1.52242 12.3463C0.00866577 16.0009 -0.387401 20.0222 0.384303 23.9018C1.15601 27.7814 3.06082 31.3451 5.85787 34.1421C8.65492 36.9392 12.2186 38.844 16.0982 39.6157C19.9778 40.3874 23.9992 39.9913 27.6537 38.4776C31.3082 36.9638 34.4318 34.4004 36.6294 31.1114C38.827 27.8224 40 23.9556 40 20C40 14.6957 37.8929 9.60859 34.1421 5.85786C30.3914 2.10714 25.3043 0 20 0V0ZM20 38.6207C16.3172 38.6207 12.7171 37.5286 9.65491 35.4825C6.59275 33.4365 4.20609 30.5283 2.79673 27.1258C1.38738 23.7233 1.01863 19.9793 1.73711 16.3673C2.45559 12.7552 4.22904 9.43733 6.83319 6.83318C9.43734 4.22903 12.7552 2.45558 16.3673 1.7371C19.9793 1.01862 23.7233 1.38737 27.1258 2.79673C30.5283 4.20608 33.4365 6.59274 35.4825 9.6549C37.5286 12.7171 38.6207 16.3172 38.6207 20C38.6207 24.9385 36.6589 29.6748 33.1668 33.1668C29.6748 36.6589 24.9385 38.6207 20 38.6207Z" fill="#28230E"/>
<path d="M28.9659 19.3102H20.69V11.0344C20.69 10.8515 20.6174 10.6761 20.488 10.5467C20.3587 10.4174 20.1833 10.3447 20.0004 10.3447C19.8175 10.3447 19.6421 10.4174 19.5127 10.5467C19.3834 10.6761 19.3107 10.8515 19.3107 11.0344V19.3102H11.0349C10.852 19.3102 10.6765 19.3829 10.5472 19.5122C10.4179 19.6416 10.3452 19.817 10.3452 19.9999C10.3452 20.1828 10.4179 20.3582 10.5472 20.4876C10.6765 20.6169 10.852 20.6896 11.0349 20.6896H19.3107V28.9654C19.3107 29.1483 19.3834 29.3237 19.5127 29.4531C19.6421 29.5824 19.8175 29.6551 20.0004 29.6551C20.1833 29.6551 20.3587 29.5824 20.488 29.4531C20.6174 29.3237 20.69 29.1483 20.69 28.9654V20.6896H28.9659C29.1488 20.6896 29.3242 20.6169 29.4536 20.4876C29.5829 20.3582 29.6556 20.1828 29.6556 19.9999C29.6556 19.817 29.5829 19.6416 29.4536 19.5122C29.3242 19.3829 29.1488 19.3102 28.9659 19.3102Z" fill="#28230E"/>
</svg>
